<svg width="64" height="64" viewBox="0 0 64 64" fill="none" xmlns="http://www.w3.org/2000/svg">
<g clip-path="url(#clip0_118_1295)">
<path d="M48.5 15.8L46.057 15.694C38.674 15.694 33.894 19.624 31.239 24.192L24.812 35.558C23.112 38.258 20.829 39.435 17.748 39.435C13.34 39.435 9.728 36.089 9.728 31.999C9.728 27.909 13.34 24.563 17.748 24.563C20.35 24.563 22.263 25.263 23.803 26.963L28.53 19.156C25.3583 16.8742 21.5492 15.648 17.642 15.651C7.914 15.642 0 22.918 0 31.947C0 39.542 5.63 45.915 13.278 47.721C14.658 48.041 16.146 48.251 17.633 48.251H18.005C23.805 48.145 29.318 46.286 32.027 41.401L39.144 28.601C40.472 26.531 41.694 25.627 43.552 25.043C44.402 24.777 45.305 24.618 46.252 24.618C50.66 24.618 54.272 27.964 54.272 32.054C54.272 36.144 50.67 39.5 46.262 39.5C42.65 39.5 40.42 38.597 38.295 35.942L33.727 43.442C36.914 46.469 41.427 48.382 46.367 48.382C56.087 48.382 64 41.106 64 32.077C64.053 23.685 57.255 16.781 48.5 15.825V15.8Z" fill="#EFF0F0"/>
</g>
<defs>
<clipPath id="clip0_118_1295">
<rect width="64" height="64" fill="white"/>
</clipPath>
</defs>
</svg>
