<svg width="90" height="90" viewBox="0 0 90 90" fill="none" xmlns="http://www.w3.org/2000/svg">
<circle cx="45" cy="45" r="44.5" stroke="#EFF0F0"/>
<path d="M67.2396 20H22.7604C21.2354 20 20 21.2354 20 22.7604V67.2417C20 68.7646 21.2354 70 22.7604 70H46.7083V50.6375H40.1917V43.0917H46.7083V37.5271C46.7083 31.0687 50.6521 27.5521 56.4146 27.5521C59.175 27.5521 61.5458 27.7583 62.2375 27.85V34.6L58.2417 34.6021C55.1083 34.6021 54.5021 36.0917 54.5021 38.275V43.0937H61.975L61.0021 50.6396H54.5021V70H67.2437C68.7646 70 70 68.7646 70 67.2396V22.7604C70 21.2354 68.7646 20 67.2396 20Z" fill="#EFF0F0"/>
</svg>
