<svg width="90" height="90" viewBox="0 0 90 90" fill="none" xmlns="http://www.w3.org/2000/svg">
<circle cx="45" cy="45" r="44.5" stroke="#EFF0F0"/>
<path d="M45 11C25.6742 11 10 26.6713 10 46C10 61.4642 20.0275 74.5833 33.9371 79.2121C35.6842 79.5358 36.25 78.4508 36.25 77.5292V71.0133C26.5142 73.1308 24.4871 66.8833 24.4871 66.8833C22.8946 62.8379 20.5992 61.7617 20.5992 61.7617C17.4229 59.5887 20.8413 59.6354 20.8413 59.6354C24.3558 59.8804 26.205 63.2433 26.205 63.2433C29.3258 68.5925 34.3921 67.0467 36.39 66.1513C36.7021 63.8908 37.6092 62.345 38.6125 61.4729C30.8396 60.5833 22.6671 57.5821 22.6671 44.1742C22.6671 40.3504 24.035 37.2296 26.2721 34.7796C25.9104 33.8958 24.7117 30.3346 26.6133 25.5163C26.6133 25.5163 29.5533 24.5771 36.2412 29.1037C39.0325 28.3279 42.025 27.94 45 27.9254C47.975 27.94 50.9704 28.3279 53.7675 29.1037C60.4496 24.5771 63.3837 25.5163 63.3837 25.5163C65.2883 30.3375 64.0896 33.8988 63.7279 34.7796C65.9738 37.2296 67.33 40.3533 67.33 44.1742C67.33 57.6171 59.1429 60.5775 51.3496 61.4438C52.6038 62.5288 53.75 64.6579 53.75 67.9246V77.5292C53.75 78.4596 54.31 79.5533 56.0863 79.2092C69.9842 74.5746 80 61.4583 80 46C80 26.6713 64.3288 11 45 11Z" fill="#EFF0F0"/>
</svg>
