<svg width="90" height="90" viewBox="0 0 90 90" fill="none" xmlns="http://www.w3.org/2000/svg">
<circle cx="45" cy="45" r="44.5" stroke="#EFF0F0"/>
<path d="M59.5833 20H30.4167C24.6646 20 20 24.6646 20 30.4167V59.5833C20 65.3354 24.6646 70 30.4167 70H59.5833C65.3375 70 70 65.3354 70 59.5833V30.4167C70 24.6646 65.3375 20 59.5833 20ZM36.6667 59.5833H30.4167V36.6667H36.6667V59.5833ZM33.5417 34.025C31.5292 34.025 29.8958 32.3792 29.8958 30.35C29.8958 28.3208 31.5292 26.675 33.5417 26.675C35.5542 26.675 37.1875 28.3208 37.1875 30.35C37.1875 32.3792 35.5562 34.025 33.5417 34.025ZM61.6667 59.5833H55.4167V47.9083C55.4167 40.8917 47.0833 41.4229 47.0833 47.9083V59.5833H40.8333V36.6667H47.0833V40.3437C49.9917 34.9563 61.6667 34.5583 61.6667 45.5021V59.5833Z" fill="#EFF0F0"/>
</svg>
